<svg aria-hidden="true" style="position: absolute; width: 0; height: 0; overflow: hidden;" version="1.1" xmlns="http://www.w3.org/2000/svg" xmlns:xlink="http://www.w3.org/1999/xlink">
<defs>
<symbol id="icon-close" viewBox="0 0 32 32">
<path fill="#055545" style="fill: var(--color1, #055545)" d="M1.854 1.854l-1.854 1.852 12.294 12.294-12.294 12.294 1.854 1.852 1.852 1.854 12.294-12.294 12.294 12.294 1.852-1.854 1.854-1.852-12.294-12.294 12.294-12.294-1.854-1.852-1.852-1.854-12.294 12.294-12.294-12.294-1.852 1.854z"></path>
</symbol>
<symbol id="icon-facebook" viewBox="0 0 32 32">
<path d="M14.96 0.032c-3.285 0.264-6.037 1.301-8.667 3.267-0.813 0.606-2.386 2.181-2.997 2.997-1.37 1.829-2.362 3.906-2.848 5.971-0.249 0.977-0.404 2.104-0.429 3.264l-0 0.016c-0.221 6.752 3.802 12.882 10.114 15.414 0.616 0.246 2.056 0.688 2.454 0.752l0.213 0.034v-10.894h-3.2v-4.8h3.192l0.021-2.44c0.021-2.432 0.021-2.442 0.16-2.957 0.556-2.085 2.214-3.676 4.297-4.126l0.037-0.007c0.288-0.062 0.91-0.086 2.733-0.107l2.36-0.027v4.859l-3.707 0.032-0.248 0.146c-0.339 0.2-0.65 0.568-0.755 0.898-0.077 0.234-0.090 0.536-0.090 2.003v1.726h4.8v4.8h-4.8v11.157l0.28-0.035c3.626-0.459 6.821-2.013 9.376-4.562 1.723-1.718 2.97-3.654 3.752-5.824 0.71-1.973 0.96-3.41 0.962-5.536 0.002-1.563-0.086-2.376-0.403-3.718-0.593-2.404-1.646-4.505-3.068-6.3l0.026 0.034c-0.557-0.704-1.89-2.037-2.594-2.594-2.187-1.753-4.892-2.949-7.851-3.334l-0.080-0.009c-0.619-0.082-2.496-0.144-3.040-0.101z"></path>
</symbol>
<symbol id="icon-instagram" viewBox="0 0 32 32">
<path d="M7.68 0.061c-1.459 0.169-2.774 0.677-3.899 1.442l0.030-0.019c-1.893 1.267-3.144 3.148-3.661 5.502l-0.123 0.561v16.906l0.123 0.561c0.781 3.554 3.283 6.055 6.836 6.836l0.561 0.123h16.906l0.561-0.123c3.554-0.781 6.055-3.283 6.836-6.836l0.123-0.561v-16.906l-0.123-0.561c-0.844-3.842-3.766-6.503-7.609-6.932-0.595-0.066-15.981-0.061-16.561 0.007zM26.001 5.118c0.175 0.083 0.413 0.243 0.527 0.355 0.517 0.512 0.68 1.376 0.382 2.028-0.253 0.555-0.751 0.959-1.352 1.078l-0.012 0.002c-0.807 0.167-1.728-0.359-2.028-1.157-0.155-0.408-0.13-1.095 0.049-1.443 0.48-0.925 1.509-1.29 2.434-0.862zM17.6 8.792c3.327 0.773 5.768 3.712 5.768 7.221 0 0.747-0.111 1.469-0.317 2.149l0.014-0.052c-0.175 0.606-0.579 1.457-0.973 2.046-0.376 0.564-1.337 1.539-1.885 1.912-1.176 0.816-2.633 1.303-4.204 1.303-1.574 0-3.034-0.489-4.236-1.325l0.024 0.016c-0.643-0.472-1.199-1.009-1.676-1.612l-0.014-0.018c-0.633-0.87-1.106-1.9-1.351-3.016l-0.010-0.054c-0.116-0.583-0.099-2.227 0.027-2.828 0.598-2.85 2.816-5.11 5.625-5.731 0.672-0.148 0.743-0.153 1.794-0.133 0.719 0.013 1.073 0.044 1.413 0.123zM15.181 11.146c-1.679 0.305-3.117 1.459-3.732 2.996-0.207 0.473-0.332 1.023-0.342 1.601l-0 0.004c-0.008 0.101-0.012 0.219-0.012 0.338 0 0.828 0.217 1.606 0.597 2.279l-0.012-0.023c0.613 1.179 1.794 2.085 3.173 2.437 0.482 0.123 0.608 0.135 1.28 0.113 0.603-0.020 0.837-0.052 1.216-0.165 1.638-0.474 2.903-1.738 3.368-3.342l0.009-0.035c0.168-0.568 0.232-1.627 0.131-2.163-0.36-1.908-1.667-3.368-3.496-3.909-0.391-0.115-0.616-0.145-1.201-0.16-0.086-0.004-0.186-0.006-0.287-0.006-0.244 0-0.484 0.013-0.721 0.037l0.030-0.002z"></path>
</symbol>
<symbol id="icon-menu" viewBox="0 0 32 32">
<path d="M1.653 9.727c-0.172 0.038-0.324 0.090-0.467 0.158l0.013-0.006c-0.203 0.109-0.576 0.499-0.683 0.711-0.205 0.408-0.205 1.080 0 1.489 0.113 0.227 0.487 0.605 0.711 0.721 0.145 0.066 0.314 0.119 0.49 0.152l0.014 0.002c0.445 0.083 28.092 0.083 28.537 0 0.4-0.073 0.58-0.165 0.868-0.44 0.412-0.393 0.583-0.917 0.48-1.473-0.052-0.356-0.227-0.665-0.478-0.888l-0.002-0.001c-0.288-0.275-0.468-0.367-0.868-0.44-0.477-0.088-28.216-0.073-28.616 0.015zM1.653 19.060c-0.172 0.038-0.324 0.090-0.467 0.158l0.013-0.006c-0.203 0.109-0.576 0.499-0.683 0.711-0.205 0.408-0.205 1.080 0 1.489 0.113 0.227 0.487 0.605 0.711 0.721 0.145 0.066 0.314 0.119 0.49 0.152l0.014 0.002c0.445 0.083 28.092 0.083 28.537 0 0.4-0.073 0.58-0.165 0.868-0.44 0.412-0.393 0.583-0.917 0.48-1.473-0.052-0.356-0.227-0.665-0.478-0.888l-0.002-0.001c-0.288-0.275-0.468-0.367-0.868-0.44-0.477-0.088-28.216-0.073-28.616 0.015z"></path>
</symbol>
<symbol id="icon-youtube" viewBox="0 0 32 32">
<path d="M14.933 0.034c-4.696 0.35-8.912 2.637-11.722 6.358-1.621 2.146-2.621 4.566-3.066 7.421-0.163 1.045-0.163 3.33 0 4.374 0.685 4.39 2.805 7.989 6.245 10.6 2.125 1.611 4.573 2.622 7.422 3.067 1.045 0.163 3.33 0.163 4.374 0 3.888-0.606 7.194-2.358 9.674-5.131 2.198-2.456 3.469-5.173 3.994-8.536 0.163-1.045 0.163-3.33 0-4.374-0.445-2.85-1.456-5.298-3.067-7.422-2.646-3.486-6.427-5.682-10.787-6.258-0.624-0.083-2.48-0.142-3.067-0.099zM19.653 9.6c3.266 0.245 4.235 0.936 4.573 3.259 0.091 0.621 0.091 5.661 0 6.282-0.154 1.064-0.421 1.707-0.899 2.174-0.915 0.894-2.738 1.19-7.326 1.19-6.493 0-7.811-0.531-8.219-3.31-0.088-0.602-0.125-4.739-0.051-5.712 0.131-1.709 0.47-2.533 1.266-3.061 0.8-0.531 2.021-0.776 4.355-0.877 1.283-0.054 5.309-0.021 6.302 0.054zM14.459 14.021c-0.11 0.11-0.112 0.15-0.112 1.979s0.002 1.869 0.112 1.979c0.083 0.083 0.157 0.106 0.28 0.085 0.216-0.035 3.915-1.758 4.074-1.898 0.138-0.12 0.146-0.165 0.054-0.29-0.082-0.11-3.891-1.902-4.128-1.941-0.125-0.021-0.197 0.002-0.28 0.085z"></path>
</symbol>
</defs>
</svg>
